<?xml version="1.0" encoding="utf-8"?>
<svg height="512" viewBox="0 0 60 54" width="512" xmlns="http://www.w3.org/2000/svg">
  <g id="Page-1" fill="none" fill-rule="evenodd" transform="matrix(1, 0, 0, 1, 13.983999, 0)">
    <g id="029---Filters" fill-rule="nonzero">
      <rect id="Rectangle-path" fill="#f5f5f5" height="8" rx="1" width="22" x="5" y="5"/>
      <path id="Shape" d="M 26 5 L 23 5 C 23.552 5 24 5.448 24 6 L 24 12 C 24 12.552 23.552 13 23 13 L 26 13 C 26.552 13 27 12.552 27 12 L 27 6 C 27 5.448 26.552 5 26 5 Z" fill="#cfd8dc"/>
      <path id="Shape" d="M 7 13 L 25 13 L 25 49 C 25 51.209 23.209 53 21 53 L 11 53 C 8.791 53 7 51.209 7 49 L 7 13 Z" style="fill: rgb(238, 239, 239);"/>
      <path id="Shape" d="M 2 7 L 5 7 L 5 11 L 2 11 C 1.448 11 1 10.552 1 10 L 1 8 C 1 7.448 1.448 7 2 7 Z" fill="#9e9e9e"/>
      <path id="Rectangle-path" d="M 27 7 L 31.064 7.534 L 30.731 10.933 L 27 11 L 27 7 Z" fill="#9e9e9e"/>
      <path id="Shape" d="M 23.438 1 L 8.562 1 C 7.644 1 6.844 1.624 6.621 2.515 L 6 5 L 26 5 L 25.379 2.515 C 25.156 1.624 24.356 1 23.438 1 L 23.438 1 Z" style="fill: rgb(178, 179, 179);"/>
      <path id="path-1" d="M 22.627 12.174 L 22.627 48.174 C 22.627 50.383 20.836 52.174 18.627 52.174 L 21.627 52.174 C 23.836 52.174 25.627 50.383 25.627 48.174 L 25.627 12.174 Z" style="fill: rgb(178, 179, 179);"/>
      <path id="Shape" d="M 30.032 6 L 28 6 C 27.998 5.217 27.539 4.507 26.826 4.184 L 26.349 2.272 C 26.015 0.936 24.815 0 23.438 0 L 8.562 0 C 7.185 0 5.985 0.936 5.651 2.272 L 5.174 4.184 C 4.461 4.507 4.002 5.217 4 6 L 2 6 C 0.895 6 0 6.895 0 8 L 0 10 C 0 11.105 0.895 12 2 12 L 4 12 C 4 13.105 4.895 14 6 14 L 6 49 C 6.003 51.76 8.24 53.997 11 54 L 21 54 C 23.76 53.997 25.997 51.76 26 49 L 26 14 C 27.105 14 28 13.105 28 12 L 30.032 12 C 31.137 12 32.032 11.105 32.032 10 L 32.032 8 C 32.032 6.895 31.137 6 30.032 6 Z M 4 10 L 2 10 L 2 8 L 4 8 L 4 10 Z M 7.591 2.758 C 7.702 2.312 8.103 2 8.562 2 L 23.438 2 C 23.897 2 24.298 2.312 24.409 2.758 L 24.72 4 L 7.28 4 L 7.591 2.758 Z M 24 49 C 24 50.657 22.657 52 21 52 L 11 52 C 9.343 52 8 50.657 8 49 L 8 14 L 12 14 L 12 46 C 12 46.552 12.448 47 13 47 C 13.552 47 14 46.552 14 46 L 14 14 L 18 14 L 18 46 C 18 46.552 18.448 47 19 47 C 19.552 47 20 46.552 20 46 L 20 14 L 24 14 L 24 49 Z M 25 12 L 6 12 L 6 6 L 26 6 L 26 7 L 26 12 L 25 12 Z M 29.864 10 L 28 10 L 28 8 L 29.864 8 L 29.864 10 Z" fill="#000"/>
    </g>
  </g>
</svg>