<?xml version="1.0" encoding="utf-8"?>
<svg viewBox="0 0 500 500" xmlns="http://www.w3.org/2000/svg">
  <defs>
    <radialGradient gradientUnits="userSpaceOnUse" cx="242.975" cy="217.904" r="59.481" id="gradient-2" gradientTransform="matrix(-0.075813, 0.750924, -3.214535, -0.324537, 966.903504, 103.659277)">
      <stop offset="0" style="stop-color: rgba(37, 79, 28, 1)"/>
      <stop offset="1" style="stop-color: rgba(2, 4, 1, 1)"/>
    </radialGradient>
    <radialGradient gradientUnits="userSpaceOnUse" cx="249.2" cy="183.183" r="46.566" id="gradient-3" gradientTransform="matrix(0.037557, -0.771164, 3.618586, 0.176232, -424.837738, 340.62796)">
      <stop offset="0" style="stop-color: rgba(37, 79, 28, 1)"/>
      <stop offset="1" style="stop-color: rgba(2, 4, 1, 1)"/>
    </radialGradient>
    <linearGradient gradientUnits="userSpaceOnUse" x1="250.725" y1="93.522" x2="250.725" y2="171.397" id="gradient-0" gradientTransform="matrix(0.999801, -0.019894, 0.007416, 0.372672, -2.269719, 111.781929)">
      <stop offset="0" style="stop-color: rgba(37, 79, 28, 1)"/>
      <stop offset="1" style="stop-color: rgba(2, 4, 1, 1)"/>
    </linearGradient>
    <radialGradient gradientUnits="userSpaceOnUse" cx="253.927" cy="261.404" r="73.855" id="gradient-1" gradientTransform="matrix(0.026778, -0.479331, 2.568657, 0.143503, -429.795441, 342.598633)">
      <stop offset="0" style="stop-color: rgba(37, 79, 28, 1)"/>
      <stop offset="1" style="stop-color: rgba(2, 4, 1, 1)"/>
    </radialGradient>
    <linearGradient gradientUnits="userSpaceOnUse" x1="268.833" y1="164.936" x2="268.833" y2="186.641" id="gradient-4" gradientTransform="matrix(-0.831616, 0.55535, -0.392227, -0.587345, 563.791206, 123.21409)">
      <stop offset="0" style="stop-color: rgba(18, 46, 12, 0.22);"/>
      <stop offset="1" style="stop-color: rgba(0, 0, 0, 0.44);"/>
    </linearGradient>
    <linearGradient gradientUnits="userSpaceOnUse" x1="268.833" y1="164.936" x2="268.833" y2="186.641" id="gradient-5" gradientTransform="matrix(-0.831616, -0.55535, -0.392227, 0.587345, 504.315812, 306.359733)">
      <stop offset="0" style="stop-color: rgba(18, 46, 12, 0.22);"/>
      <stop offset="1" style="stop-color: rgba(0, 0, 0, 0.44);"/>
    </linearGradient>
    <linearGradient gradientUnits="userSpaceOnUse" x1="268.833" y1="164.936" x2="268.833" y2="186.641" id="gradient-6" gradientTransform="matrix(-0.831616, 0.55535, -0.392227, -0.587345, 591.753736, 194.483979)">
      <stop offset="0" style="stop-color: rgba(18, 46, 12, 0.22);"/>
      <stop offset="1" style="stop-color: rgba(0, 0, 0, 0.44);"/>
    </linearGradient>
    <linearGradient gradientUnits="userSpaceOnUse" x1="268.833" y1="164.936" x2="268.833" y2="186.641" id="gradient-7" gradientTransform="matrix(-0.721517, 0.391084, -0.340299, -0.413615, 522.773926, 108.807854)">
      <stop offset="0" style="stop-color: rgba(18, 46, 12, 0.22);"/>
      <stop offset="1" style="stop-color: rgba(0, 0, 0, 0.44);"/>
    </linearGradient>
    <radialGradient gradientUnits="userSpaceOnUse" cx="255.879" cy="303.11" r="11.736" id="gradient-9" gradientTransform="matrix(-0.027955, -2.25261, 7.395937, -0.091788, -1985.26062, 909.634155)">
      <stop offset="0" style="stop-color: rgb(76, 42, 3);"/>
      <stop offset="1" style="stop-color: rgba(0, 0, 0, 1)"/>
    </radialGradient>
    <linearGradient gradientUnits="userSpaceOnUse" x1="250.725" y1="93.522" x2="250.725" y2="171.397" id="gradient-8" gradientTransform="matrix(0.990308, -0.138888, 0.18203, 1.29792, -14.593827, 6.960733)">
      <stop offset="0" style="stop-color: rgb(32, 97, 10);"/>
      <stop offset="1" style="stop-color: rgba(0, 0, 0, 1)"/>
    </linearGradient>
    <linearGradient gradientUnits="userSpaceOnUse" x1="246.279" y1="192.227" x2="246.279" y2="240.903" id="gradient-10" gradientTransform="matrix(0.999476, 0.032383, -0.030479, 0.940727, 6.574665, -21.088043)">
      <stop offset="0" style="stop-color: rgb(32, 97, 10);"/>
      <stop offset="1" style="stop-color: rgba(0, 0, 0, 1)"/>
    </linearGradient>
    <linearGradient gradientUnits="userSpaceOnUse" x1="247.955" y1="185.585" x2="247.955" y2="250.163" id="gradient-11" gradientTransform="matrix(-0.999478, -0.032333, 0.023402, -0.723696, 488.40973, 364.163909)">
      <stop offset="0" style="stop-color: rgb(32, 97, 10);"/>
      <stop offset="1" style="stop-color: rgba(0, 0, 0, 1)"/>
    </linearGradient>
    <linearGradient gradientUnits="userSpaceOnUse" x1="247.046" y1="234.206" x2="247.046" y2="287.542" id="gradient-12" gradientTransform="matrix(0.999534, -0.030513, 0.046767, 1.53198, -10.838187, -117.054718)">
      <stop offset="0" style="stop-color: rgba(14, 42, 5, 1)"/>
      <stop offset="1" style="stop-color: rgba(0, 0, 0, 1)"/>
    </linearGradient>
  </defs>
  <g style="" transform="matrix(2.031008, 0, 0, 2.031008, -251.751938, -183.629196)">
    <title>Trunk</title>
    <path style="fill: rgb(76, 42, 3); stroke: url(#gradient-9);" d="M 237.386 278.509 C 237.386 278.509 236.85 323.087 238.312 323.087 C 244.941 327.01 256.825 327.018 260.509 322.927 C 261.304 322.722 259.974 278.222 259.973 278.222 L 237.386 278.509 Z">
      <title>Trunk</title>
    </path>
    <path d="M 251.086 286.111 C 251.991 290.637 250.555 294.613 250.555 298.859" style="fill: none; stroke: rgb(46, 28, 9);"/>
    <path d="M 239.825 300.453 C 239.825 304.698 240.25 308.872 240.25 313.308 C 240.25 314.405 240.25 315.503 240.25 316.601 C 240.25 316.77 240.357 317.556 240.25 317.663 C 240.173 317.74 239.825 318.214 239.825 318.301" style="fill: none; stroke: rgb(46, 28, 9);"/>
    <path d="M 247.155 319.788 C 248.248 317.603 248.111 314.693 248.111 311.82 C 247.793 310.017 247.049 308.965 247.049 307.252" style="fill: none; stroke: rgb(46, 28, 9);"/>
    <path d="M 253.906 325.132 C 252.799 321.81 253.269 318.347 253.269 314.827" style="fill: none; stroke: rgb(46, 28, 9);"/>
    <path d="M 259.054 286.642 C 259.054 287.694 259.431 290.515 258.841 291.104 C 258.682 291.264 258.894 291.795 258.735 291.954 C 258.292 292.397 258.859 293.849 258.416 294.291 C 257.804 294.903 258.669 296.907 258.098 297.478 C 257.796 297.78 258.098 299.979 258.098 300.453 C 258.098 303.461 258.31 306.097 258.31 309.164" style="fill: none; stroke: rgb(46, 28, 9);"/>
    <path d="M 241.631 295.247 C 241.631 294.336 242.066 291.114 241.525 290.573 C 241.365 290.414 241.578 289.882 241.418 289.723 C 241.041 289.346 241.58 287.866 241.206 287.492 C 241.063 287.349 240.669 285.267 240.887 285.049 C 241.824 284.112 241.95 280.299 241.95 278.675" style="fill: none; stroke: rgb(46, 28, 9);"/>
    <path d="M 243.851 324.386 C 243.112 322.538 242.914 317.533 244.062 316.386 C 244.343 316.105 243.781 314.982 244.062 314.702 C 244.997 313.767 244.483 309.663 244.483 307.965" style="fill: none; stroke: rgb(59, 36, 12);"/>
    <path d="M 255.456 295.408 C 255.456 301.637 252.088 307.359 252.088 313.303" style="stroke: rgb(0, 0, 0); fill: none;"/>
    <path d="M 248.92 281.901 C 248.92 284.771 247.447 286.634 247.447 289.269" style="stroke: rgb(0, 0, 0); fill: none;"/>
    <path d="M 257.772 284.882 C 258.212 286.643 257.599 290.108 256.719 290.987 C 256.516 291.191 256.631 292.461 256.298 292.461" style="fill: none; stroke: rgb(59, 36, 12);"/>
  </g>
  <g style="" transform="matrix(2.031008, 0, 0, 2.031008, -251.751938, -183.629196)">
    <title>Branches Bottom 1</title>
    <path style="fill: url(#gradient-1); stroke: url(#gradient-12);" d="M 275.222 284.795 L 272.681 280.94 C 264.485 268.579 266.998 274.384 267.84 278.859 C 270.233 291.569 265.205 278.594 263.459 275.136 C 259.567 273.079 267.596 287.139 259.108 277.205 C 257.806 274.745 262.46 293.93 256 279.872 C 255.112 278.127 254.629 298.956 250.178 278.44 C 250.205 277.299 246.388 289.458 244.75 283.241 C 244.597 281.493 242.493 295.631 242.287 278.744 C 242.069 274.92 239.619 287.781 239.395 287.201 C 238.003 284.384 237.395 279.109 236.636 280.462 C 236.636 280.462 235.563 289.603 233.162 281.79 C 233.673 281.21 230.189 286.428 230.189 286.428 L 228.215 278.629 C 225.536 279.658 225.807 284.104 225.474 283.93 C 224.555 282.876 221.99 278.712 222.501 279.292 C 220.1 287.105 219.027 277.964 219.027 277.964 C 218.268 276.611 217.66 281.886 216.268 284.703 C 216.044 285.283 213.594 272.422 213.376 276.246 C 213.17 293.133 211.066 278.995 210.913 280.743 C 209.275 286.96 205.458 274.801 205.485 275.942 C 201.034 296.458 200.551 275.629 199.663 277.374 C 193.203 291.432 197.857 272.247 196.555 274.707 C 188.067 284.641 196.096 270.581 192.204 272.638 C 188.451 274.2 180.016 283.623 186.412 274.694 C 189.105 271.022 186.375 273.18 175.598 277.749 C 164.971 281.053 192.277 271.03 204.063 235.188 L 294.467 234.206 C 295.114 234.607 300.766 254.067 311.86 265.161 C 317.104 270.405 322.921 278.287 320.214 275.925 C 307.226 266.839 311.705 271.844 314.398 275.516 C 320.794 284.445 312.359 275.022 308.606 273.46 C 304.714 271.403 312.743 285.463 304.255 275.529 C 302.953 273.069 307.607 292.254 301.147 278.196 C 300.259 276.451 299.776 297.28 295.325 276.764 C 295.352 275.623 291.535 287.782 289.897 281.565 C 289.744 279.817 287.64 293.955 287.434 277.068 C 287.216 273.244 284.766 286.105 284.542 285.525 C 283.15 282.708 282.542 277.433 281.783 278.786 C 281.783 278.786 280.71 287.927 278.309 280.114 C 278.221 279.334 275.391 285.441 275.222 284.795 Z">
      <title>Branches Bottom 1</title>
    </path>
    <path style="fill: none; stroke: rgba(18, 46, 12, 0.59);" d="M 233.429 246.974 C 231.875 254.146 226.589 262.723 217.572 272.702"/>
    <path style="fill: none; stroke: url(#gradient-6);" d="M 304.371 257.911 C 302.777 251.86 297.727 244.626 289.222 236.206" transform="matrix(-0.954512, -0.298171, 0.298171, -0.954512, 506.42674, 571.375048)"/>
    <path style="fill: none; stroke: rgba(18, 46, 12, 0.59);" d="M 281.52 269.676 C 279.966 262.504 274.68 253.927 265.663 243.948" transform="matrix(-1, 0, 0, -1, 547.182983, 513.623993)"/>
    <path style="fill: none; stroke: url(#gradient-5);" d="M 216.932 242.932 C 215.338 248.983 210.288 256.217 201.783 264.637" transform="matrix(0.954512, -0.298171, 0.298171, 0.954512, -66.148037, 73.96839)"/>
    <path d="M 298.083 276.625 C 300.032 272.728 295.355 268.032 293.615 266.291 C 293.215 265.892 290.542 264.66 290.542 264.057" style="fill: none; stroke: rgb(16, 27, 4);"/>
    <path d="M 310.372 270.202 C 308.703 270.202 305.066 266.006 305.066 264.616" style="fill: none; stroke: rgb(16, 27, 4);"/>
    <path d="M 184.969 272.436 C 187.848 270.277 189.786 268.491 192.51 267.129 C 193.443 266.663 194.554 264.336 195.303 264.336" style="fill: none; stroke: rgb(16, 27, 4);"/>
    <path d="M 202.006 279.418 C 201.281 275.797 201.447 272.105 201.447 268.526" style="fill: none; stroke: rgb(16, 27, 4);"/>
    <path d="M 235.242 280.815 C 233.579 278.043 233.845 275.5 233.845 271.877" style="fill: none; stroke: rgb(16, 27, 4);"/>
  </g>
  <g style="" transform="matrix(2.031008, 0, 0, 2.031008, -251.751938, -183.629196)">
    <title>Branches 2</title>
    <path style="fill: url(#gradient-2); stroke: url(#gradient-11);" d="M 271.327 188.911 L 268.428 193.578 C 259.096 208.545 262.365 201.517 263.975 196.098 C 268.544 180.709 261.725 196.419 259.57 200.605 C 255.912 203.096 265.449 186.073 256.365 198.101 C 254.782 201.079 262.547 177.85 254.317 194.871 C 253.223 196.984 257.043 171.765 249.177 196.605 C 248.967 197.987 248.253 183.265 245.628 190.792 C 245.146 192.908 246.259 175.79 242.665 196.237 C 241.708 200.867 242.275 185.296 241.97 185.997 C 240.241 189.408 238.663 195.795 238.305 194.157 C 238.305 194.157 239.265 183.089 235.682 192.549 C 235.99 193.251 234.144 186.933 234.144 186.933 L 230.919 196.376 C 228.897 195.13 230.024 189.747 229.71 189.958 C 228.732 191.235 225.75 196.276 226.295 195.574 C 225.877 186.114 223.131 197.182 223.131 197.182 C 222.224 198.82 222.787 192.433 222.199 189.022 C 222.13 188.32 217.481 203.892 218.076 199.261 C 221.326 178.816 216.709 195.934 216.934 193.817 C 216.831 186.289 211.187 201.011 211.441 199.629 C 211.891 174.789 207.267 200.008 206.881 197.896 C 204.349 180.875 204.338 204.104 203.751 201.125 C 198.694 189.098 202.533 206.121 199.708 203.63 C 196.899 201.738 191.691 190.36 195.3 201.141 C 196.784 205.574 192.507 199.681 189.225 199.487 C 184.96 198.746 199.648 206.441 213.258 248.592 L 277.103 250.163 C 290.911 212.149 310.592 197.207 307.008 199.65 C 296.395 209.12 299.176 204.189 302.08 200.146 C 309.635 189.626 300.281 200.744 296.839 202.635 C 293.18 205.125 302.718 188.102 293.633 200.13 C 292.05 203.109 299.816 179.879 291.586 196.9 C 290.491 199.013 294.311 173.795 286.445 198.635 C 286.236 200.016 285.521 185.294 282.897 192.822 C 282.414 194.938 283.528 177.82 279.934 198.267 C 278.977 202.897 279.542 187.324 279.239 188.027 C 277.508 191.438 275.932 197.824 275.574 196.186 C 275.574 196.186 276.534 185.118 272.95 194.578 C 272.718 195.523 271.599 188.129 271.327 188.911 Z" transform="matrix(-0.99962, 0.027577, -0.027577, -0.99962, 501.824224, 428.827131)">
      <title>Branches 2</title>
    </path>
    <path style="fill: none; stroke: rgba(18, 46, 12, 0.59);" d="M 222.102 209.789 C 220.548 216.961 215.262 225.538 206.245 235.517"/>
    <path style="fill: none; stroke: rgba(18, 46, 12, 0.72);" d="M 292.187 225.043 C 291.533 218.446 287.868 210.558 281.193 201.378" transform="matrix(-0.998905, 0.046789, -0.046789, -0.998905, 583.041927, 412.773558)"/>
    <path style="fill: none; stroke: rgba(18, 46, 12, 0.59);" d="M 257.643 205.273 C 256.089 212.445 250.803 221.022 241.786 231.001" transform="matrix(0.916804, -0.399338, 0.399338, 0.916804, -66.335081, 117.868636)"/>
    <path d="M 282.722 228.307 C 283.573 231.71 282.163 236.022 282.163 238.083" style="fill: none; stroke: rgb(43, 67, 13);"/>
    <path d="M 228.539 233.055 C 228.539 236.255 227.422 237.818 227.422 240.876" style="fill: none; stroke: rgb(43, 67, 13);"/>
    <path d="M 206.195 243.389 C 204.876 238.114 208.429 236.295 208.429 231.938" style="fill: none; stroke: rgb(43, 67, 13);"/>
  </g>
  <g style="" transform="matrix(2.031008, 0, 0, 2.031008, -251.751938, -183.629196)">
    <title>Branches 3</title>
    <path style="fill: url(#gradient-3); stroke: url(#gradient-10);" d="M 262.393 203.964 L 261.095 200.446 C 256.905 189.164 258.002 194.461 258.133 198.545 C 258.504 210.146 256.438 198.304 255.623 195.149 C 253.277 193.272 257.198 206.103 252.591 197.036 C 251.971 194.792 253.212 212.301 250.314 199.47 C 249.897 197.879 247.632 216.886 246.649 198.163 C 246.773 197.123 243.146 208.219 242.658 202.545 C 242.721 200.951 240.025 213.853 241.472 198.441 C 241.687 194.951 238.887 206.688 238.794 206.159 C 238.15 203.589 238.245 198.775 237.624 200.009 C 237.624 200.009 236.069 208.351 235.235 201.221 C 235.622 200.692 232.86 205.454 232.86 205.454 L 232.302 198.336 C 230.458 199.275 230.218 203.334 230.017 203.174 C 229.517 202.211 228.232 198.412 228.513 198.942 C 226.214 206.071 226.37 197.729 226.37 197.729 C 226 196.494 225.111 201.308 223.939 203.879 C 223.739 204.409 223.344 192.672 222.845 196.162 C 221.129 211.573 221.08 198.669 220.816 200.266 C 219.166 205.939 217.814 194.843 217.724 195.884 C 212.901 214.608 214.534 195.598 213.792 197.192 C 208.261 210.021 213.094 192.512 212.013 194.757 C 205.547 203.823 212.101 190.992 209.369 192.869 C 206.774 194.295 200.324 202.871 205.398 194.745 C 207.484 191.403 202.905 195.845 200.294 195.992 C 196.8 196.551 209.907 190.75 229.349 158.979 L 279.682 157.794 C 282.574 186.448 294.875 197.71 292.577 195.869 C 286.238 188.731 287.388 192.448 288.82 195.496 C 292.546 203.424 287.537 195.044 285.234 193.619 C 282.888 191.742 286.811 204.573 282.203 195.507 C 281.582 193.262 282.824 210.772 279.925 197.941 C 279.508 196.348 277.245 215.357 276.261 196.634 C 276.385 195.593 272.756 206.69 272.27 201.017 C 272.333 199.42 269.638 212.323 271.084 196.911 C 271.299 193.422 268.497 205.158 268.405 204.63 C 267.761 202.058 267.858 197.246 267.236 198.479 C 267.236 198.479 265.681 206.822 264.846 199.692 C 264.86 198.979 262.444 204.552 262.393 203.964 Z" transform="matrix(0.999818, -0.019065, 0.019065, 0.999818, -3.42758, 4.72873)">
      <title>Branches 3</title>
    </path>
    <path style="fill: none; stroke: url(#gradient-4);" d="M 276.408 186.641 C 274.814 180.59 269.764 173.356 261.259 164.936" transform="matrix(-0.954512, -0.298171, 0.298171, -0.954512, 473.023366, 423.739195)"/>
    <path d="M 237.197 184.458 C 237.197 188.202 237.123 192.073 235.242 193.954 C 234.7 194.496 235.538 195.909 234.404 195.909" style="fill: none; stroke: rgb(43, 67, 13);"/>
    <path d="M 207.033 192.837 C 210.402 191.152 216.25 187.547 216.25 183.899" style="fill: none; stroke: rgb(43, 67, 13);"/>
  </g>
  <g style="" transform="matrix(2.031008, 0, 0, 2.031008, -251.751938, -183.629196)">
    <title>Branches 4</title>
    <path style="fill: url(#gradient-0); stroke: url(#gradient-8);" d="M 266.568 168.586 L 265.489 164.641 C 262.006 151.988 262.918 157.929 263.026 162.509 C 263.335 175.519 261.617 162.239 260.939 158.7 C 258.989 156.595 262.249 170.986 258.419 160.816 C 257.903 158.3 258.935 177.937 256.525 163.547 C 256.178 161.762 254.296 183.079 253.478 162.081 C 253.581 160.914 250.565 173.359 250.16 166.995 C 250.212 165.207 247.971 179.677 249.173 162.393 C 249.352 158.479 247.024 171.641 246.947 171.048 C 246.411 168.166 246.491 162.767 245.974 164.15 C 245.974 164.15 244.681 173.507 243.988 165.51 C 244.309 164.917 242.013 170.258 242.013 170.258 L 241.549 162.275 C 240.016 163.327 239.817 167.88 239.649 167.701 C 239.233 166.621 238.165 162.36 238.399 162.954 C 236.487 170.95 236.617 161.594 236.617 161.594 C 236.309 160.209 235.57 165.608 234.596 168.491 C 234.429 169.086 234.101 155.922 233.686 159.836 C 232.259 177.12 232.218 162.648 231.999 164.439 C 230.627 170.801 229.503 158.357 229.428 159.525 C 225.418 180.524 226.776 159.204 226.158 160.992 C 221.56 175.379 225.578 155.743 224.68 158.261 C 219.303 168.428 224.753 154.038 222.481 156.143 C 220.323 157.742 214.961 167.36 219.18 158.247 C 220.914 154.499 217.107 159.481 214.936 159.645 C 212.031 160.272 243.223 138.144 255.945 93.522 C 262.182 134.566 277.949 144.963 283.948 156.704 C 288.447 167.732 286.929 169.299 283.04 159.102 C 282.524 156.584 283.556 176.221 281.146 161.832 C 280.799 160.045 278.917 181.364 278.099 160.366 C 278.202 159.199 275.185 171.643 274.781 165.281 C 274.834 163.491 272.592 177.961 273.795 160.676 C 273.974 156.763 271.644 169.926 271.568 169.333 C 271.032 166.449 271.112 161.052 270.596 162.435 C 270.596 162.435 269.303 171.792 268.608 163.795 C 268.62 162.996 266.611 169.246 266.568 168.586 Z" transform="matrix(0.999818, -0.019065, 0.019065, 0.999818, -2.47977, 4.804149)">
      <title>Branches Top 4</title>
    </path>
    <path style="fill: none; stroke: rgba(18, 46, 12, 0.49);" d="M 248.949 129.26 C 249.021 135.857 246.224 143.746 240.559 152.925"/>
    <path style="fill: none; stroke: url(#gradient-7);" d="M 273.438 153.474 C 272.055 149.213 267.673 144.119 260.294 138.189" transform="matrix(-0.891509, -0.453003, 0.453003, -0.891509, 438.717324, 396.732688)"/>
    <path d="M 227.142 157.646 C 230.42 155.024 234.683 151.273 234.683 147.032" style="fill: none; stroke: rgb(43, 67, 13);"/>
  </g>
</svg>