<?xml version="1.0" encoding="utf-8"?>
<svg viewBox="0 0 500 500" xmlns="http://www.w3.org/2000/svg">
  <defs>
    <radialGradient gradientUnits="userSpaceOnUse" cx="231.857" cy="300.674" r="11.736" id="gradient-9" gradientTransform="matrix(2.241059, 0.593331, -1.893034, 7.150157, 288.879143, -1999.92165)">
      <stop offset="0" style="stop-color: rgb(235, 203, 167);"/>
      <stop offset="1" style="stop-color: rgb(205, 162, 113);"/>
    </radialGradient>
    <linearGradient gradientUnits="userSpaceOnUse" x1="164.944" y1="160.063" x2="164.944" y2="163.745" id="gradient-0" gradientTransform="matrix(5.328602, -7.767451, 75.004844, 52.484547, -12740.700169, -7132.999292)">
      <stop offset="0" style="stop-color: rgb(235, 203, 167);"/>
      <stop offset="1" style="stop-color: rgb(205, 162, 113);"/>
    </linearGradient>
    <radialGradient gradientUnits="userSpaceOnUse" cx="182.727" cy="182.887" r="3.29" id="gradient-2" gradientTransform="matrix(-8.431493, -111.378372, 28.626928, -2.1671, -3308.463351, 20970.684554)">
      <stop offset="0" style="stop-color: rgb(235, 203, 167);"/>
      <stop offset="1" style="stop-color: rgb(205, 162, 113);"/>
    </radialGradient>
    <linearGradient gradientUnits="userSpaceOnUse" x1="253.925" y1="275.47" x2="253.925" y2="323.261" id="gradient-1" gradientTransform="matrix(0.285596, -0.958351, 0.563368, 0.167888, 9.546183, 486.53915)">
      <stop offset="0" style="stop-color: rgb(235, 203, 167);"/>
      <stop offset="1" style="stop-color: rgb(205, 162, 113);"/>
    </linearGradient>
    <linearGradient gradientUnits="userSpaceOnUse" x1="178.11" y1="152.247" x2="178.11" y2="200.854" id="gradient-3" gradientTransform="matrix(1.777494, -8.886342, 4.080241, 0.816158, -757.741018, 1680.030057)">
      <stop offset="0" style="stop-color: rgb(235, 203, 167);"/>
      <stop offset="1" style="stop-color: rgb(205, 162, 113);"/>
    </linearGradient>
    <linearGradient gradientUnits="userSpaceOnUse" x1="166.129" y1="157.44" x2="166.129" y2="161.064" id="gradient-4" gradientTransform="matrix(4.121429, -8.80178, 65.83389, 36.944151, -10878.159104, -4381.166494)">
      <stop offset="0" style="stop-color: rgb(235, 203, 167);"/>
      <stop offset="1" style="stop-color: rgb(205, 162, 113);"/>
    </linearGradient>
    <linearGradient gradientUnits="userSpaceOnUse" x1="165.094" y1="155.321" x2="165.094" y2="164.306" id="gradient-5" gradientTransform="matrix(-0.09918, 1.07719, -3.886644, -0.380287, 876.584673, 157.886886)">
      <stop offset="0" style="stop-color: rgb(235, 203, 167);"/>
      <stop offset="1" style="stop-color: rgb(205, 162, 113);"/>
    </linearGradient>
  </defs>
  <path style="stroke: url(#gradient-2); fill: url(#gradient-3);" d="M 336.594 461.636 C 343.117 464.146 366.926 451.095 368.399 417.322 C 371.619 343.335 362.018 190.636 363.872 99.524 C 365.282 29.624 336.784 27.116 309.441 21.44"/>
  <path style="stroke: url(#gradient-0); fill: url(#gradient-4);" d="M 345.34 50.347 C 347.627 75.479 142.125 86.214 132.906 50.935 C 132.748 45.742 134.189 17.538 237.712 14.338 C 315.838 11.923 345.677 33.807 345.34 50.347 Z"/>
  <g style="" transform="matrix(9.062359, 0, 0, 9.062359, -2014.559937, -2472.478271)">
    <title>Trunk</title>
    <path style="fill: url(#gradient-5); fill-opacity: 0.81; stroke: rgba(59, 36, 12, 0.16);" d="M 253.61 272.266 C 255.929 272.266 252.743 276.318 247.874 279.557 C 243.023 282.785 240.119 282.799 242.629 279.586 C 244.617 277.061 249.363 273.903 251.171 273.903 C 252.008 273.904 251.958 274.629 251.037 275.797 C 250.015 277.098 248.083 278.719 246.164 279.892 C 243.506 281.514 242.348 281.138 244.082 279.211 C 244.583 278.654 245.267 278.042 246.026 277.468 C 247.224 276.562 248.39 276.075 248.557 276.406 C 248.687 276.67 248.345 277.253 247.642 277.972 C 247.096 278.529 246.246 279.102 245.699 279.284 C 245.294 279.421 245.08 279.366 245.122 279.134" transform="matrix(-0.810267, -0.586061, 0.586061, -0.810267, 286.615007, 647.042459)"/>
    <path style="stroke: url(#gradient-9); fill: url(#gradient-1);" d="M 237.386 278.509 C 237.386 278.509 237.383 278.388 237.378 279.207 C 237.343 284.872 236.958 323.087 238.312 323.087 C 244.941 327.01 256.825 327.018 260.509 322.927 C 261.304 322.722 260.273 277.757 259.973 278.222 C 256.371 280.634 246.37 282.163 237.386 278.509 Z">
      <title>Trunk</title>
    </path>
    <path d="M 251.086 286.111 C 251.991 290.637 250.555 294.613 250.555 298.859" style="fill: none; stroke: rgba(46, 28, 9, 0.2);"/>
    <path d="M 239.825 300.453 C 239.825 304.698 240.25 308.872 240.25 313.308 C 240.25 314.405 240.25 315.503 240.25 316.601 C 240.25 316.77 240.357 317.556 240.25 317.663 C 240.173 317.74 239.825 318.214 239.825 318.301" style="fill: none; stroke: rgba(46, 28, 9, 0.25);"/>
    <path d="M 247.304 311.541 C 248.397 309.356 248.26 306.446 248.26 303.573 C 247.942 301.77 247.198 300.718 247.198 299.005" style="fill: none; stroke: rgba(46, 28, 9, 0.26);"/>
    <path d="M 253.906 325.132 C 252.799 321.81 253.269 318.347 253.269 314.827" style="fill: none; stroke: rgba(46, 28, 9, 0.14);"/>
    <path d="M 259.054 286.642 C 259.054 287.694 259.431 290.515 258.841 291.104 C 258.682 291.264 258.894 291.795 258.735 291.954 C 258.292 292.397 258.859 293.849 258.416 294.291 C 257.804 294.903 258.669 296.907 258.098 297.478 C 257.796 297.78 258.098 299.979 258.098 300.453 C 258.098 303.461 258.31 306.097 258.31 309.164" style="fill: none; stroke: rgb(191, 161, 128);"/>
    <path d="M 241.313 297.315 C 241.313 296.404 241.748 293.182 241.207 292.641 C 241.047 292.482 241.26 291.95 241.1 291.791 C 240.723 291.414 241.262 289.934 240.888 289.56 C 240.745 289.417 240.351 287.335 240.569 287.117 C 241.506 286.18 241.632 282.367 241.632 280.743" style="fill: none; stroke: rgb(191, 161, 128);"/>
    <path d="M 243.851 324.386 C 243.112 322.538 242.914 317.533 244.062 316.386 C 244.343 316.105 243.781 314.982 244.062 314.702 C 244.997 313.767 244.483 309.663 244.483 307.965" style="fill: none; stroke: rgb(191, 161, 128);"/>
    <path d="M 255.456 295.408 C 255.456 301.637 252.088 307.359 252.088 313.303" style="fill: none; stroke: rgba(0, 0, 0, 0.17);"/>
    <path d="M 248.92 281.901 C 248.92 284.771 247.447 286.634 247.447 289.269" style="fill: none; stroke: rgba(0, 0, 0, 0.29);"/>
    <path d="M 257.772 284.882 C 258.212 286.643 257.599 290.108 256.719 290.987 C 256.516 291.191 256.631 292.461 256.298 292.461" style="fill: none; stroke: rgba(59, 36, 12, 0.1);"/>
    <path style="fill: rgb(216, 216, 216); stroke: rgb(0, 0, 0);" d="M 238.068 277.275"/>
  </g>
  <path style="fill: rgb(216, 216, 216); stroke: rgb(0, 0, 0);" d="M 148.583 46.757"/>
</svg>