<?xml version="1.0" encoding="utf-8"?>
<svg viewBox="0 0 500 500" xmlns="http://www.w3.org/2000/svg" xmlns:bx="https://boxy-svg.com">
  <defs>
    <radialGradient id="gradient-3" gradientUnits="userSpaceOnUse" cy="-11637" cx="-2676.4" gradientTransform="matrix(.36632 -.7112 -.7548 -.34344 -7765.1 -5838.3)" r="13.54">
      <stop id="stop-5" style="stop-color: rgb(53, 53, 52);" offset="0"/>
      <stop id="stop-6" style="stop-color: rgb(28, 25, 25);" offset="1"/>
    </radialGradient>
    <linearGradient id="gradient-4" y2="-7977.2" gradientUnits="userSpaceOnUse" x2="-3379.6" gradientTransform="matrix(.5728 -.55848 .55848 .5728 6433.7 2737.3)" y1="-7977.2" x1="-3390.8">
      <stop id="stop-7" style="stop-color: rgb(63, 63, 61);" offset="0"/>
      <stop id="stop-8" style="stop-color: rgb(31, 29, 29);" offset="1"/>
    </linearGradient>
    <radialGradient id="gradient-1" gradientUnits="userSpaceOnUse" cy="-11637" cx="-2676.4" gradientTransform="matrix(.36632 -.7112 -.7548 -.34344 -7765.1 -5838.3)" r="13.54">
      <stop id="stop-1" style="stop-color: rgb(53, 53, 52);" offset="0"/>
      <stop id="stop-2" style="stop-color: rgb(28, 25, 25);" offset="1"/>
    </radialGradient>
    <linearGradient id="gradient-2" y2="-7977.2" gradientUnits="userSpaceOnUse" x2="-3379.6" gradientTransform="matrix(0.675836, -0.658941, 0.658941, 0.675836, 7584.563974, 3218.498235)" y1="-7977.2" x1="-3390.8">
      <stop id="stop-3" style="stop-color: rgb(63, 63, 61);" offset="0"/>
      <stop id="stop-4" style="stop-color: rgb(31, 29, 29);" offset="1"/>
    </linearGradient>
    <linearGradient gradientUnits="userSpaceOnUse" x1="1083.596" y1="562.85" x2="1083.596" y2="589.15" id="gradient-13" gradientTransform="matrix(1.064441, -0.141136, -0.058503, 0.856776, -25.329428, 240.050358)">
      <stop offset="0" style="stop-color: rgba(246, 226, 221, 0.56);"/>
      <stop offset="1" style="stop-color: rgba(246, 149, 127, 0.5);"/>
    </linearGradient>
    <linearGradient gradientUnits="userSpaceOnUse" x1="1083.596" y1="562.85" x2="1083.596" y2="589.15" id="gradient-5" gradientTransform="matrix(1.064441, -0.141136, -0.058503, 0.856776, -25.329428, 240.050358)">
      <stop offset="0" style="stop-color: rgba(246, 226, 221, 0.56);"/>
      <stop offset="1" style="stop-color: rgba(246, 149, 127, 0.5);"/>
    </linearGradient>
    <linearGradient gradientUnits="userSpaceOnUse" x1="1083.596" y1="562.85" x2="1083.596" y2="589.15" id="gradient-6" gradientTransform="matrix(1.064441, -0.141136, -0.058503, 0.856776, -25.329428, 240.050358)">
      <stop offset="0" style="stop-color: rgba(246, 226, 221, 0.56);"/>
      <stop offset="1" style="stop-color: rgba(246, 149, 127, 0.5);"/>
    </linearGradient>
    <linearGradient gradientUnits="userSpaceOnUse" x1="1083.596" y1="562.85" x2="1083.596" y2="589.15" id="gradient-7" gradientTransform="matrix(1.064441, -0.141136, -0.058503, 0.856776, -25.329428, 240.050358)">
      <stop offset="0" style="stop-color: rgba(246, 226, 221, 0.56);"/>
      <stop offset="1" style="stop-color: rgba(246, 149, 127, 0.5);"/>
    </linearGradient>
    <linearGradient gradientUnits="userSpaceOnUse" x1="1083.596" y1="562.85" x2="1083.596" y2="589.15" id="gradient-8" gradientTransform="matrix(1.064441, -0.141136, -0.058503, 0.856776, -25.329428, 240.050358)">
      <stop offset="0" style="stop-color: rgba(246, 226, 221, 0.56);"/>
      <stop offset="1" style="stop-color: rgba(246, 149, 127, 0.5);"/>
    </linearGradient>
    <linearGradient gradientUnits="userSpaceOnUse" x1="1083.596" y1="562.85" x2="1083.596" y2="589.15" id="gradient-9" gradientTransform="matrix(-0.98185, 0.292825, -0.204084, -0.648746, 2276.545007, 634.398011)">
      <stop offset="0" style="stop-color: rgba(246, 226, 221, 0.56);"/>
      <stop offset="1" style="stop-color: rgba(246, 149, 127, 0.5);"/>
    </linearGradient>
    <linearGradient gradientUnits="userSpaceOnUse" x1="1083.596" y1="562.85" x2="1083.596" y2="589.15" id="gradient-10" gradientTransform="matrix(0.772293, -0.742799, 0.159305, 0.576957, 159.813451, 1043.854146)">
      <stop offset="0" style="stop-color: rgb(246, 149, 127);"/>
      <stop offset="1" style="stop-color: rgb(240, 129, 104);"/>
    </linearGradient>
    <linearGradient gradientUnits="userSpaceOnUse" x1="1083.596" y1="562.85" x2="1083.596" y2="589.15" id="gradient-11" gradientTransform="matrix(-1.028566, 0.31592, -0.085011, -0.958256, 2252.271258, 778.467256)">
      <stop offset="0" style="stop-color: rgba(246, 226, 221, 0.56);"/>
      <stop offset="1" style="stop-color: rgba(246, 149, 127, 0);"/>
    </linearGradient>
    <linearGradient gradientUnits="userSpaceOnUse" x1="1083.596" y1="562.85" x2="1083.596" y2="589.15" id="gradient-12" gradientTransform="matrix(0.778258, -0.736724, 0.124603, 0.46586, 173.793748, 1102.724516)">
      <stop offset="0" style="stop-color: rgb(246, 149, 127);"/>
      <stop offset="1" style="stop-color: rgb(240, 129, 104);"/>
    </linearGradient>
    <linearGradient gradientUnits="userSpaceOnUse" x1="1083.596" y1="562.85" x2="1083.596" y2="589.15" id="gradient-14" gradientTransform="matrix(-1.028566, 0.31592, -0.085011, -0.958256, 2252.271258, 778.467256)">
      <stop offset="0" style="stop-color: rgba(246, 226, 221, 0.56);"/>
      <stop offset="1" style="stop-color: rgba(246, 149, 127, 0);"/>
    </linearGradient>
  </defs>
  <g transform="matrix(1.162883, 0, 0, 1.162883, -140.715881, 74.190788)" style="">
    <title>Tail</title>
    <ellipse style="fill: rgb(245, 126, 99);" cx="194.205" cy="252.788" rx="4.623" ry="13.596" transform="matrix(0.953608, 0.301052, -0.301052, 0.953608, 99.368753, -47.524836)">
      <title>Small left tail</title>
    </ellipse>
    <path style="fill: rgb(246, 112, 82);" transform="matrix(-0.147826, -0.078883, -0.19962, 0.395588, 411.605988, -50.45903)" d="M 285.235 801.756 A 20.187 20.187 0 0 1 285.235 828.244 A 53 53 0 0 0 285.235 801.756 Z" bx:shape="crescent 270 815 20.187 82 0.919 1@16a24ec5"/>
    <ellipse style="fill: rgb(245, 126, 99);" cx="357.481" cy="238.067" rx="7.195" ry="18.235" transform="matrix(0.941261, -0.337679, 0.337679, 0.941261, -187.260408, 151.700573)">
      <title>Med right tail</title>
    </ellipse>
    <path style="fill: rgb(246, 112, 82);" transform="matrix(0.28064, -0.111043, 0.293574, 0.741961, -87.213058, -323.520111)" d="M 285.235 801.756 A 20.187 20.187 0 0 1 285.235 828.244 A 53 53 0 0 0 285.235 801.756 Z" bx:shape="crescent 270 815 20.187 82 0.919 1@16a24ec5"/>
    <ellipse style="fill: rgb(245, 126, 99);" cx="252.585" cy="259.046" rx="6.094" ry="18.446" transform="matrix(0.994172, 0.107807, -0.107807, 0.994172, -11.189933, -30.520125)">
      <title>Med left tail</title>
    </ellipse>
    <path style="fill: rgb(246, 112, 82);" transform="matrix(-0.284117, -0.101817, -0.269182, 0.751154, 511.402496, -333.406311)" d="M 285.235 801.756 A 20.187 20.187 0 0 1 285.235 828.244 A 53 53 0 0 0 285.235 801.756 Z" bx:shape="crescent 270 815 20.187 82 0.919 1@16a24ec5"/>
    <ellipse style="fill: rgb(246, 135, 110);" cx="307.774" cy="245.816" rx="5.244" ry="22.66" transform="matrix(0.934593, -0.35572, 0.288666, 0.960114, -132.252027, 129.865191)">
      <title>Big right tail</title>
    </ellipse>
    <ellipse style="fill: rgb(246, 135, 110);" cx="215.557" cy="259.698" rx="5.592" ry="22.09" transform="matrix(0.995567, 0.094052, -0.094052, 0.995567, 26.829935, -21.164553)">
      <title>Big left tail</title>
    </ellipse>
    <path style="fill: rgba(246, 112, 82, 0.47);" transform="matrix(-0.958016, -1.110305, -0.257973, 1.442599, 701.890442, -600.913208)" d="M 285.235 801.756 A 20.187 20.187 0 0 1 285.235 828.244 A 116.258 116.258 0 0 0 285.235 801.756 Z" bx:shape="crescent 270 815 20.187 82 0.896 1@03312b5b"/>
    <path style="fill: rgb(246, 112, 82);" transform="matrix(-0.298221, -0.225333, -0.182544, 0.984671, 450.277069, -482.771484)" d="M 282.149 798.878 A 20.187 20.187 0 0 1 282.149 831.122 A 29.854 29.854 0 0 0 282.149 798.878 Z" bx:shape="crescent 270 815 20.187 106 0.918 1@13067f6b"/>
    <path style="fill: rgba(246, 112, 82, 0.47);" d="M 286.536 803.421 A 20.187 20.187 0 0 1 286.536 826.579 A 132.277 132.277 0 0 1 286.536 803.421 Z" transform="matrix(0.83998, -0.785191, 0.394735, 1.548398, -336.183655, -780.303955)" bx:shape="crescent 270 815 20.187 70 0.897 1@370699fe"/>
    <path style="fill: rgb(246, 112, 82);" transform="matrix(0.276785, -0.251198, 0.237709, 0.848299, -45.749435, -365.668579)" d="M 283.11 799.65 A 20.187 20.187 0 0 1 283.11 830.35 A 45.112 45.112 0 0 0 283.11 799.65 Z" bx:shape="crescent 270 815 20.187 99 0.891 1@f227287d"/>
    <path style="fill: rgba(246, 112, 82, 0.65);" transform="matrix(-1.146814, -2.49659, -0.257129, 1.487791, 754.885864, -243.21843)" d="M 285.235 801.756 A 20.187 20.187 0 0 1 285.235 828.244 A 116.258 116.258 0 0 0 285.235 801.756 Z" bx:shape="crescent 270 815 20.187 82 0.896 1@03312b5b"/>
    <path style="fill: rgba(246, 112, 82, 0.62);" transform="matrix(1.217384, -1.034593, 0.453308, 1.53269, -491.615326, -698.613098)" d="M 285.235 801.756 A 20.187 20.187 0 0 1 285.235 828.244 A 116.258 116.258 0 0 0 285.235 801.756 Z" bx:shape="crescent 270 815 20.187 82 0.896 1@03312b5b"/>
    <ellipse style="fill: rgb(246, 135, 110);" cx="215.557" cy="259.698" rx="3.738" ry="17.243" transform="matrix(0.986046, -0.166474, 0.166474, 0.986046, 73.343481, -32.608117)">
      <title>Big left tail</title>
    </ellipse>
    <ellipse style="fill: rgb(246, 135, 110);" cx="215.557" cy="259.698" rx="4.232" ry="17.773" transform="matrix(0.895853, -0.44435, 0.44435, 0.895853, 51.835508, 30.233947)">
      <title>Big left tail</title>
    </ellipse>
    <ellipse style="fill: rgb(246, 135, 110);" cx="215.557" cy="259.698" rx="3.706" ry="17.124" transform="matrix(0.970623, -0.240606, 0.240606, 0.970623, 68.749995, -17.488604)">
      <title>Big left tail</title>
    </ellipse>
    <ellipse style="fill: rgb(246, 135, 110);" cx="215.557" cy="259.698" rx="3.821" ry="17.594" transform="matrix(0.954233, -0.299065, 0.299065, 0.954233, 67.44791, -8.896767)">
      <title>Big left tail</title>
    </ellipse>
    <ellipse style="fill: rgb(246, 135, 110);" cx="215.557" cy="259.698" rx="3.738" ry="17.243" transform="matrix(0.986046, -0.166474, 0.166474, 0.986046, 63.063459, -30.450641)">
      <title>Big left tail</title>
    </ellipse>
  </g>
  <g transform="matrix(1.162883, 0, 0, 1.162883, -141.118057, 73.788605)" style="">
    <title>Body</title>
    <g transform="matrix(-0.030883, -0.346205, 0.372791, -0.033255, 100.36338, 379.739868)" style="">
      <title>part 4</title>
      <path style="fill: rgb(246, 149, 127); stroke: rgb(246, 149, 127);" d="M 418.43 309.281 C 398.538 299.901 365.561 315.732 360.773 333.581 C 367.784 334.07 384.882 347.413 381.649 385.288 C 388.651 388.789 431.811 372.039 433.597 354.808 L 418.43 309.281 Z" transform="matrix(0.921039, 0.38947, -0.38947, 0.921039, 166.166769, -127.361489)"/>
      <path style="fill: rgb(240, 129, 104);" transform="matrix(-0.652768, 1.086559, -0.964908, -0.063688, 1256.556763, 14.004807)" d="M 361.42 639.756 A 14.649 14.649 0 0 1 361.42 668.244 A 42.8 42.8 0 0 0 361.42 639.756 Z" bx:shape="crescent 358 654 14.649 153 0.7 1@5944d8b7"/>
    </g>
    <g transform="matrix(0.30571, -0.391957, 0.407676, 0.317971, 18.943354, 327.624481)" style="">
      <title>part 3</title>
      <path style="fill: rgb(246, 149, 127); stroke: rgb(246, 149, 127);" d="M 453.675 132.128 C 433.783 122.748 400.806 138.579 396.018 156.428 C 403.029 156.917 420.127 170.26 416.894 208.135 C 423.896 211.636 467.056 194.886 468.842 177.655 L 453.675 132.128 Z"/>
      <path style="fill: rgb(240, 129, 104);" transform="matrix(-0.305453, 1.26747, -0.960068, 0.225393, 1170.949097, -414.971436)" d="M 361.42 639.756 A 14.649 14.649 0 0 1 361.42 668.244 A 42.8 42.8 0 0 0 361.42 639.756 Z" bx:shape="crescent 358 654 14.649 153 0.7 1@5944d8b7"/>
    </g>
    <g transform="matrix(0.810605, -0.272477, 0.272477, 0.810605, -3.881651, 93.867424)" style="">
      <title>part 2</title>
      <path style="fill: rgb(246, 149, 127); stroke: rgb(246, 149, 127);" d="M 244.712 161.541 C 228.718 153.999 202.204 166.728 198.354 181.078 C 203.991 181.472 217.738 192.2 215.139 222.652 C 220.769 225.467 255.47 211.999 256.906 198.145 L 244.712 161.541 Z" transform="matrix(0.965926, -0.258819, 0.258819, 0.965926, -41.720259, 65.428667)"/>
      <path style="fill: rgb(240, 129, 104);" transform="matrix(0.238968, 0.669731, -0.558719, 0.356478, 507.600891, -261.340607)" d="M 361.42 639.756 A 14.649 14.649 0 0 1 361.42 668.244 A 42.8 42.8 0 0 0 361.42 639.756 Z" bx:shape="crescent 358 654 14.649 153 0.7 1@5944d8b7" bx:origin="-0.86 0.208"/>
    </g>
    <g>
      <title>part 1</title>
      <path style="fill: rgb(246, 149, 127); stroke: rgb(246, 149, 127);" d="M 284.705 132.419 C 264.813 123.039 231.836 138.87 227.048 156.719 C 234.059 157.208 251.157 170.551 247.924 208.426 C 254.926 211.927 298.086 195.177 299.872 177.946 L 284.705 132.419 Z"/>
      <path style="fill: rgb(240, 129, 104);" transform="matrix(-0.414824, 1.054521, -1.534109, 0.632576, 1424.706055, -604.476135)" d="M 361.42 639.756 A 14.649 14.649 0 0 1 361.42 668.244 A 42.8 42.8 0 0 0 361.42 639.756 Z" bx:shape="crescent 358 654 14.649 153 0.7 1@5944d8b7"/>
    </g>
  </g>
  <g transform="matrix(1.482197, 0, 0, 1.482197, -172.157394, -278.066406)" style="">
    <title>Right Eye</title>
    <g id="g-1" transform="matrix(1.315179, 0, 0, -1.315179, 253.311325, 396.534241)">
      <title>white of the eye</title>
      <g id="g-2">
        <g id="g-3">
          <path id="path-1" style="fill-rule: evenodd; fill: url(#gradient-1);" d="m39.742 51.151c-1.789-0.051-3.242 0.774-4.363 2.481-0.984 1.441-1.414 2.867-1.277 4.281 0.16 1.441 0.64 2.773 1.437 4 1.254 1.918 2.988 2.812 5.203 2.68 1.543-0.106 2.84-0.879 3.879-2.321 0.934-1.332 1.426-2.828 1.481-4.48 0.023-1.652-0.536-3.133-1.68-4.438-1.227-1.441-2.789-2.175-4.68-2.203z"/>
        </g>
      </g>
    </g>
    <g id="g-4" transform="matrix(1.315179, 0, 0, -1.315179, 253.311325, 396.534241)">
      <title>dark of the eye</title>
      <g id="g-5">
        <g id="g-6">
          <path id="path-2" style="fill-rule: evenodd; fill: url(#gradient-2);" d="M 44.125 61.811 C 44.946 60.645 45.402 59.465 45.495 58.271 C 45.619 56.884 45.259 55.561 44.412 54.303 C 43.434 52.829 42.111 52.086 40.447 52.086 C 38.714 52.086 37.268 52.718 36.102 53.975 C 35.032 55.109 34.497 56.414 34.497 57.894 C 34.47 59.369 34.894 60.709 35.774 61.903 C 36.687 63.226 37.848 63.949 39.268 64.074 C 41.31 64.263 42.932 63.507 44.125 61.811 Z"/>
        </g>
      </g>
    </g>
    <path id="path-5" style="fill-rule:evenodd;fill:#fcf5ed" d="M 303.103 313.633 C 304.229 313.669 304.614 314.162 304.264 315.108 C 303.981 315.811 303.453 316.51 302.682 317.214 C 302.051 317.773 301.475 318.072 300.946 318.107 C 300.355 318.107 300.073 317.717 300.108 316.946 C 300.175 316.14 300.596 315.369 301.367 314.635 C 302.035 313.967 302.615 313.633 303.103 313.633 Z">
      <title>Pupil</title>
    </path>
    <path id="path-6" style="fill-rule: evenodd; fill: rgb(59, 59, 58);" d="M 305.733 324.001 C 307.069 323.79 308.277 323.071 309.366 321.843 C 309.89 321.247 310.296 320.651 310.573 320.055 L 310.363 320.897 C 310.223 321.597 309.802 322.367 309.104 323.209 C 308.153 324.335 307.048 324.91 305.79 324.945 C 304.557 325.017 303.509 324.786 302.631 324.262 L 301.634 323.471 L 302.42 323.893 C 303.226 324.176 304.331 324.211 305.733 324.001 Z">
      <title>Shine</title>
    </path>
  </g>
  <g transform="matrix(1.162883, 0, 0, 1.162883, -151.440887, 78.519913)" style="">
    <title>head</title>
    <path style="fill: rgb(246, 149, 127); stroke: rgb(246, 149, 127);" d="M 421.521 40.913 C 420.369 40.913 429.235 38.025 444.242 38.231 C 474.39 43.716 483.27 84.092 454.854 113.24 C 495.332 96.518 497.444 32.393 435.745 20.282 C 432.236 19.593 433.757 19.46 439.252 19.914 C 450.957 20.882 460.884 25.755 467.657 30.791 C 477.433 38.059 485.064 50.179 487.542 61.003 C 497.414 104.123 451.365 135.087 394.796 124.413 C 393.469 127.288 429.499 130.599 430.39 128.668 C 430.39 128.668 420.265 135.462 408.679 137.5 C 398.654 139.264 386.939 136.307 386.979 136.354 C 394.606 145.14 413.722 145.438 423.277 142.463 C 430.946 140.075 406.622 151.135 391.546 151.056 C 380.955 151 376.069 148.388 375.451 150.334 C 368.305 172.848 301.289 183.131 300.781 179.738 L 279.115 146.078 L 289.174 123.252 C 289.174 123.252 357.409 84.82 387.058 107.389 C 416.707 129.957 448.677 112.974 452.476 109.116 C 482.116 76.09 469.427 32.869 421.521 40.913 Z"/>
    <circle style="fill: rgb(246, 149, 127);" cx="414.764" cy="47.08" r="3.518" transform="matrix(1.126651, -0.163101, 0.176323, 0.949144, -51.805969, 65.885086)"/>
    <circle style="fill: rgb(246, 149, 127);" cx="414.764" cy="47.08" r="3.518" transform="matrix(1.126651, -0.163101, 0.176323, 0.949144, -40.651283, 45.347023)"/>
    <path style="fill: rgb(240, 129, 104);" transform="matrix(0.330614, 0.82644, -2.256702, 0.902782, 1697.342041, -729.684082)" d="M 361.42 639.756 A 14.649 14.649 0 0 1 361.42 668.244 A 42.8 42.8 0 0 0 361.42 639.756 Z" bx:shape="crescent 358 654 14.649 153 0.7 1@5944d8b7"/>
    <path style="fill: rgb(240, 129, 104);" transform="matrix(-0.907785, 0.454685, -1.327056, -0.004305, 1595.562134, -17.207067)" d="M 361.42 639.756 A 14.649 14.649 0 0 1 361.42 668.244 A 42.8 42.8 0 0 0 361.42 639.756 Z" bx:shape="crescent 358 654 14.649 153 0.7 1@5944d8b7"/>
    <path style="fill: rgb(240, 129, 104);" transform="matrix(-0.708808, 0.355023, -1.036179, -0.003361, 1343.952515, 5.867627)" d="M 361.42 639.756 A 14.649 14.649 0 0 1 361.42 668.244 A 42.8 42.8 0 0 0 361.42 639.756 Z" bx:shape="crescent 358 654 14.649 153 0.7 1@5944d8b7"/>
  </g>
  <g transform="matrix(1.748819, 0, 0, 1.748819, -268.802521, -345.638702)" style="">
    <title>Left Eye</title>
    <g id="g-7" transform="matrix(1.315179, 0, 0, -1.315179, 253.311325, 396.534241)">
      <title>white of the eye</title>
      <g id="g-8">
        <g id="g-9">
          <path id="path-3" style="fill-rule: evenodd; fill: url(#gradient-3);" d="m39.742 51.151c-1.789-0.051-3.242 0.774-4.363 2.481-0.984 1.441-1.414 2.867-1.277 4.281 0.16 1.441 0.64 2.773 1.437 4 1.254 1.918 2.988 2.812 5.203 2.68 1.543-0.106 2.84-0.879 3.879-2.321 0.934-1.332 1.426-2.828 1.481-4.48 0.023-1.652-0.536-3.133-1.68-4.438-1.227-1.441-2.789-2.175-4.68-2.203z"/>
        </g>
      </g>
    </g>
    <g id="g-10" transform="matrix(1.315179, 0, 0, -1.315179, 253.311325, 396.534241)">
      <title>dark of the eye</title>
      <g id="g-11">
        <g id="g-12">
          <path id="path-4" style="fill-rule: evenodd; fill: url(#gradient-4);" d="m42.859 61.874c0.696-0.988 1.082-1.988 1.161-3 0.105-1.176-0.2-2.297-0.918-3.363-0.829-1.25-1.95-1.879-3.36-1.879-1.469 0-2.695 0.535-3.683 1.601-0.907 0.961-1.36 2.067-1.36 3.321-0.023 1.25 0.336 2.386 1.082 3.398 0.774 1.121 1.758 1.734 2.961 1.84 1.731 0.16 3.106-0.481 4.117-1.918z"/>
        </g>
      </g>
    </g>
    <path id="path898" style="fill-rule:evenodd;fill:#fcf5ed" d="M 303.103 313.633 C 304.229 313.669 304.614 314.162 304.264 315.108 C 303.981 315.811 303.453 316.51 302.682 317.214 C 302.051 317.773 301.475 318.072 300.946 318.107 C 300.355 318.107 300.073 317.717 300.108 316.946 C 300.175 316.14 300.596 315.369 301.367 314.635 C 302.035 313.967 302.615 313.633 303.103 313.633 Z">
      <title>Pupil</title>
    </path>
    <path id="path900" style="fill-rule: evenodd; fill: rgb(59, 59, 58);" d="M 305.733 324.001 C 307.069 323.79 308.277 323.071 309.366 321.843 C 309.89 321.247 310.296 320.651 310.573 320.055 L 310.363 320.897 C 310.223 321.597 309.802 322.367 309.104 323.209 C 308.153 324.335 307.048 324.91 305.79 324.945 C 304.557 325.017 303.509 324.786 302.631 324.262 L 301.634 323.471 L 302.42 323.893 C 303.226 324.176 304.331 324.211 305.733 324.001 Z">
      <title>Shine</title>
    </path>
  </g>
  <path style="fill: url(#gradient-13);" transform="matrix(-0.474976, -1.387228, -2.222782, 0.761062, 2020.414185, 1277.013428)" d="M 1083.114 565.556 A 17.558 17.558 0 0 1 1083.114 586.444 A 43.455 43.455 0 0 0 1083.114 565.556 Z" bx:shape="crescent 1069 576 17.558 73 0.938 1@b95c82e5">
    <title>Shine</title>
  </path>
  <path style="fill: url(#gradient-5);" transform="matrix(-0.587274, -1.343546, -2.152788, 0.940999, 2032.066284, 1152.388306)" d="M 1083.114 565.556 A 17.558 17.558 0 0 1 1083.114 586.444 A 43.455 43.455 0 0 0 1083.114 565.556 Z" bx:shape="crescent 1069 576 17.558 73 0.938 1@b95c82e5">
    <title>Shine</title>
  </path>
  <path style="fill: url(#gradient-6);" transform="matrix(-0.654369, -0.590176, -0.945651, 1.048506, 1369.585327, 309.604706)" d="M 1083.114 565.556 A 17.558 17.558 0 0 1 1083.114 586.444 A 43.455 43.455 0 0 0 1083.114 565.556 Z" bx:shape="crescent 1069 576 17.558 73 0.938 1@b95c82e5">
    <title>Shine</title>
  </path>
  <path style="fill: url(#gradient-7);" transform="matrix(-0.737906, -0.205697, -0.329592, 1.182359, 1088.720947, -144.065842)" d="M 1083.114 565.556 A 17.558 17.558 0 0 1 1083.114 586.444 A 43.455 43.455 0 0 0 1083.114 565.556 Z" bx:shape="crescent 1069 576 17.558 73 0.938 1@b95c82e5">
    <title>Shine</title>
  </path>
  <path style="fill: url(#gradient-8);" transform="matrix(-0.582743, 0.059888, 0.095957, 0.93374, 676.392273, -259.628784)" d="M 1083.114 565.556 A 17.558 17.558 0 0 1 1083.114 586.444 A 43.455 43.455 0 0 0 1083.114 565.556 Z" bx:shape="crescent 1069 576 17.558 73 0.938 1@b95c82e5">
    <title>Shine</title>
  </path>
  <path style="fill: url(#gradient-9);" transform="matrix(0.731363, -1.270873, -2.036345, -1.171875, 679.795837, 2263.443359)" d="M 1083.114 565.556 A 17.558 17.558 0 0 1 1083.114 586.444 A 43.455 43.455 0 0 0 1083.114 565.556 Z" bx:shape="crescent 1069 576 17.558 73 0.938 1@b95c82e5">
    <title>Shine</title>
  </path>
  <path style="fill: url(#gradient-11);" transform="matrix(1.238126, -0.785526, -0.876192, -1.38103, -450.958588, 1788.439087)" d="M 1083.47 566.055 A 17.558 17.558 0 0 1 1083.47 585.945 A 29.077 29.077 0 0 0 1083.47 566.055 Z" bx:shape="crescent 1069 576 17.558 69 0.962 1@56be83e7">
    <title>Shine</title>
  </path>
  <path style="fill: url(#gradient-12);" transform="matrix(1.313772, 1.788988, 1.814899, -1.332802, -2075.987549, -970.396179)" d="M 1083.114 565.556 A 17.558 17.558 0 0 1 1083.114 586.444 A 43.455 43.455 0 0 0 1083.114 565.556 Z" bx:shape="crescent 1069 576 17.558 73 0.938 1@b95c82e5">
    <title>Shine</title>
  </path>
  <path style="fill: url(#gradient-10);" transform="matrix(1.21898, 1.185679, 1.61211, -1.657386, -1873.32019, -123.527992)" d="M 1083.114 565.556 A 17.558 17.558 0 0 1 1083.114 586.444 A 43.455 43.455 0 0 0 1083.114 565.556 Z" bx:shape="crescent 1069 576 17.558 73 0.938 1@b95c82e5">
    <title>Shine</title>
  </path>
  <path style="fill: url(#gradient-14);" transform="matrix(1.034767, -1.038879, -1.370296, -1.36487, 63.149498, 2034.8573)" d="M 1083.47 566.055 A 17.558 17.558 0 0 1 1083.47 585.945 A 29.077 29.077 0 0 0 1083.47 566.055 Z" bx:shape="crescent 1069 576 17.558 69 0.962 1@56be83e7">
    <title>Shine</title>
  </path>
</svg>