<?xml version="1.0" encoding="utf-8"?>
<svg viewBox="0 0 500 500" xmlns="http://www.w3.org/2000/svg" xmlns:bx="https://boxy-svg.com">
  <defs>
    <radialGradient gradientUnits="userSpaceOnUse" cx="82.471" cy="204.066" r="198.818" id="gradient-0" gradientTransform="matrix(-0.937489, 0.309888, -0.627817, -1.899322, 534.200501, 534.297475)">
      <stop offset="0" style="stop-color: rgb(203, 237, 91);"/>
      <stop offset="1" style="stop-color: rgb(70, 85, 22);"/>
    </radialGradient>
    <radialGradient gradientUnits="userSpaceOnUse" cx="-561.318" cy="-134.098" r="222.299" id="gradient-1" gradientTransform="matrix(-0.512456, -0.210299, 0.534458, -1.302367, -0.684831, 26.84162)">
      <stop offset="0" style="stop-color: rgb(49, 57, 25);"/>
      <stop offset="1" style="stop-color: rgb(155, 177, 81);"/>
    </radialGradient>
    <radialGradient id="gradient-3" gradientUnits="userSpaceOnUse" cy="-11637" cx="-2676.4" gradientTransform="matrix(.36632 -.7112 -.7548 -.34344 -7765.1 -5838.3)" r="13.54">
      <stop id="stop-5" style="stop-color: rgb(53, 53, 52);" offset="0"/>
      <stop id="stop-6" style="stop-color: rgb(28, 25, 25);" offset="1"/>
    </radialGradient>
    <linearGradient id="gradient-4" y2="-7977.2" gradientUnits="userSpaceOnUse" x2="-3379.6" gradientTransform="matrix(.5728 -.55848 .55848 .5728 6433.7 2737.3)" y1="-7977.2" x1="-3390.8">
      <stop id="stop-7" style="stop-color: rgb(63, 63, 61);" offset="0"/>
      <stop id="stop-8" style="stop-color: rgb(31, 29, 29);" offset="1"/>
    </linearGradient>
    <linearGradient gradientUnits="userSpaceOnUse" x1="1074.589" y1="588.174" x2="1074.589" y2="614.474" id="gradient-5" gradientTransform="matrix(0.619358, 0.627004, -0.772717, 1.038136, 879.060298, -715.264423)">
      <stop offset="0" style="stop-color: rgba(227, 248, 156, 0.63);"/>
      <stop offset="1" style="stop-color: rgba(115, 135, 51, 0.4);"/>
    </linearGradient>
    <linearGradient gradientUnits="userSpaceOnUse" x1="1074.589" y1="588.174" x2="1074.589" y2="614.474" id="gradient-2" gradientTransform="matrix(0.619358, 0.627004, -0.772717, 1.038136, 879.060298, -715.264423)">
      <stop offset="0" style="stop-color: rgba(227, 248, 156, 0.63);"/>
      <stop offset="1" style="stop-color: rgba(115, 135, 51, 0.4);"/>
    </linearGradient>
    <linearGradient gradientUnits="userSpaceOnUse" x1="1074.589" y1="588.174" x2="1074.589" y2="614.474" id="gradient-6" gradientTransform="matrix(0.526317, 0.677829, -0.605284, 0.670672, 880.561243, -553.74775)">
      <stop offset="0" style="stop-color: rgba(227, 248, 156, 0.63);"/>
      <stop offset="1" style="stop-color: rgba(116, 135, 51, 0);"/>
    </linearGradient>
    <radialGradient gradientUnits="userSpaceOnUse" cx="1079.827" cy="572.994" r="4.39" id="gradient-8" gradientTransform="matrix(1.851587, -0.389063, 0.361533, 1.633784, -1117.871886, 59.35038)">
      <stop offset="0" style="stop-color: rgb(227, 248, 156);"/>
      <stop offset="1" style="stop-color: rgba(155, 177, 81, 0.4);"/>
    </radialGradient>
  </defs>
  <g transform="matrix(1.124613, 0, 0, 1.124613, -6.508864, -23.481661)" style="">
    <title>Dorsal Fin</title>
    <path d="M 71.095 122.282 C 79.14 108.874 83.557 111.675 83.557 111.675 C 90.641 112.417 92.315 107.96 94.006 106.269 C 98.978 101.297 110.513 102.888 115.485 97.916 C 122.867 90.534 125.109 86.706 137.548 80.639 C 142.139 78.4 147.808 85.878 155.743 73.171 C 157.86 69.781 171.397 70.238 175.189 68.972 C 182.468 66.541 182.812 61.269 189.469 57.941 C 198.452 53.449 205.723 52.201 214.528 47.798 C 219.012 45.556 224.841 50.321 228.538 48.125 C 232.239 45.926 241.103 41.777 246.15 43.621 C 251.704 45.651 254.987 51.265 259.277 55.554 C 265.378 61.656 282.667 55.676 288.512 61.521 C 290.823 63.831 292.277 67.672 294.479 69.874 C 296.664 72.059 292.624 79.952 295.075 82.403 C 299.49 86.818 302.205 94.307 306.412 98.513 C 308.898 100.999 307.505 107.363 309.991 109.849 C 313.81 113.668 305.666 128.494 304.622 129.538 C 301.82 132.34 303.097 143.984 304.116 145.003 C 305.21 146.097 306.338 153.731 307.008 158.177 C 307.365 160.545 308.123 162.999 307.605 165.337 C 306.912 168.468 305.019 171.502 302.832 173.69 C 298.648 177.874 292.966 179.976 288.512 184.43 C 286.126 186.816 289.109 194.573 286.722 196.959 C 283.441 200.241 274.397 204.785 271.116 208.066 C 267.016 212.166 267.904 221.504 263.527 225.881 C 258.853 230.554 243.891 225.652 239.218 230.326 C 232.759 236.784 224.545 241.878 218.244 248.18 C 214.69 251.733 199.381 251.21 193.415 251.21 C 192.084 251.21 179.713 247.111 173.08 248.731 C 166.164 250.42 162.336 258.962 155.458 260.799 C 147.733 262.862 134.816 258.917 131.544 258.917 C 118.638 258.917 125.901 270.074 118.927 277.048 C 115.445 280.53 106.37 287.4 103.045 290.725 C 98.502 295.269 88.811 295.848 84.083 300.576 C 81.076 303.583 89.442 316.73 86.718 319.453 C 86.172 320 76.707 327.596 79.236 330.125 C 81.429 332.318 92.291 332.54 93.936 335.829 C 97.31 342.577 86.04 348.493 91.02 353.473 C 95.248 357.701 100.919 355.256 106.73 356.6 C 112.58 357.953 105.059 372.554 123.398 372.657 C 138.717 372.743 130.925 364.697 143.702 364.424 C 149.985 364.29 145.894 378.637 153.927 378.74 C 158.504 381.355 175.698 371.217 179.201 374.731 C 195.892 391.475 201.558 376.011 212.272 377.993 C 230.944 381.447 248.009 387.227 253.907 361.658 C 255.63 354.187 276.113 356.133 281.352 350.894 C 290.342 341.904 286.201 340.847 296.863 334.618 C 302.822 331.136 311.061 337.283 323.118 325.238 C 330.4 317.963 345.865 323.689 352.353 318.078 C 359.029 312.304 367.372 313.796 368.44 314.25 C 372.356 315.915 373.497 320.353 376.737 321.567 C 379.977 322.781 385.224 320.693 387.409 322.232 C 391.22 324.917 398.857 327.594 402.472 326.431 C 417.804 321.497 414.108 331.494 419.233 340.672 C 421.633 344.97 430.061 341.739 433.541 345.22 C 435.132 346.811 434.19 350.935 440.06 353.877 C 445.309 356.508 444.894 366.176 444.894 366.176 C 444.794 369.89 447.838 372.806 447.446 372.675 C 447.446 372.675 441.535 368.481 441.135 368.067 C 424.951 351.288 390.644 336.552 362.769 333.329 C 350.053 333.187 321.688 342.126 314.765 350.297 C 243.316 434.628 79.294 422.235 54.345 351.083 C 26.133 270.625 136.065 219.089 231.087 195.264 C 270.129 185.475 271.603 122.087 275.386 97.319 C 280.364 64.725 160.698 96.044 148.88 103.883 C 127.815 116.022 64.69 143.784 62.383 141.471 C 62.135 141.223 59.056 137.939 59.389 137.606 C 59.678 137.317 60.318 130.817 64.225 130.725 C 68.144 130.17 71.419 122.069 71.095 122.282 Z" style="fill: url(#gradient-0);">
      <title>Fin</title>
    </path>
  </g>
  <g style="" transform="matrix(1.124613, 0, 0, 1.124613, -6.508864, -23.481661)">
    <title>Body</title>
    <path style="fill: url(#gradient-1);" d="M 73.379 174.076 C 31.323 201.031 19.558 200.603 9.55 198.859 C 7.969 199.239 2.835 195.655 8.115 191.658 C 23.964 179.66 43.915 135.164 87.101 124.773 C 223.176 44.043 291.422 44.043 291.839 124.773 C 292.104 176.174 256 221.878 170.843 234.145 C 127.35 240.41 87.926 255.462 65.254 307.039 C 45.469 352.047 83.962 382.633 180.731 398.796 C 225.06 406.2 266.465 388.723 304.947 346.364 C 338.175 309.789 386.654 319.36 450.385 375.077 C 394.166 334.27 343.177 327.309 325.467 359.423 C 321.898 365.896 319.812 369.629 315.361 375.543 C 284.43 416.635 212.739 441.149 166.792 437.072 C 126.545 433.501 69.216 423.633 34.669 373.829 C -22.156 291.908 106.636 199.185 160.757 195.932 C 192.116 190.945 217.09 185.269 231.883 165.427 C 255.853 133.275 241.638 88.851 175.391 125.635 C 163.979 131.971 152.254 143.126 147.649 153.486 C 139.326 172.212 125.594 183.448 106.452 187.193 C 81.241 208.464 47.559 223.065 19.92 219.272 C 10.107 214.388 35.795 211.042 45.328 204.893 C 54.921 198.705 75.015 175.921 73.379 174.076 Z">
      <title>Body</title>
    </path>
    <path style="fill: rgb(96, 111, 48);" transform="matrix(0.497134, -0.351003, 0.279808, 0.396299, -150.221832, 60.131783)" d="M 250.372 419.883 A 41.638 41.638 0 0 1 250.372 490.117 A 85.801 85.801 0 0 0 250.372 419.883 Z" bx:shape="crescent 228 455 41.638 115 0.859 1@8046aaa4"/>
    <path style="fill: rgb(96, 111, 48);" d="M 216.345 111.817 C 235.333 110.661 247.289 124.252 241.211 147.32 C 233.687 176.063 205.042 185.727 205.042 185.727 C 236.678 176.798 247.73 156.996 252.488 144.062 C 261.236 120.283 239.07 104.182 216.345 111.817 Z"/>
    <path style="fill: rgb(96, 111, 48);" d="M 404.727 363.539 C 395.749 373.542 386.325 378.298 369.131 371.654 C 353.056 365.442 337.001 350.111 328.175 325.501 C 349.205 355.946 368.099 363.023 369.09 363.523 C 375.971 366.995 390.756 371.093 404.727 363.539 Z" transform="matrix(-0.864342, 0.502905, -0.502905, -0.864342, 859.208636, 468.237356)"/>
  </g>
  <g transform="matrix(1.017272, -0.697727, 0.593762, 0.865689, -460.281433, 106.004402)" style="">
    <title>Left Eye</title>
    <g id="g-7" transform="matrix(1.315179, 0, 0, -1.315179, 253.311325, 396.534241)">
      <title>white of the eye</title>
      <g id="g-8">
        <g id="g-9">
          <path id="path-3" style="fill-rule: evenodd; fill: url(#gradient-3);" d="m39.742 51.151c-1.789-0.051-3.242 0.774-4.363 2.481-0.984 1.441-1.414 2.867-1.277 4.281 0.16 1.441 0.64 2.773 1.437 4 1.254 1.918 2.988 2.812 5.203 2.68 1.543-0.106 2.84-0.879 3.879-2.321 0.934-1.332 1.426-2.828 1.481-4.48 0.023-1.652-0.536-3.133-1.68-4.438-1.227-1.441-2.789-2.175-4.68-2.203z"/>
        </g>
      </g>
    </g>
    <g id="g-10" transform="matrix(1.315179, 0, 0, -1.315179, 253.311325, 396.534241)">
      <title>dark of the eye</title>
      <g id="g-11">
        <g id="g-12">
          <path id="path-4" style="fill-rule: evenodd; fill: url(#gradient-4);" d="m42.859 61.874c0.696-0.988 1.082-1.988 1.161-3 0.105-1.176-0.2-2.297-0.918-3.363-0.829-1.25-1.95-1.879-3.36-1.879-1.469 0-2.695 0.535-3.683 1.601-0.907 0.961-1.36 2.067-1.36 3.321-0.023 1.25 0.336 2.386 1.082 3.398 0.774 1.121 1.758 1.734 2.961 1.84 1.731 0.16 3.106-0.481 4.117-1.918z"/>
        </g>
      </g>
    </g>
    <path id="path898" style="fill-rule:evenodd;fill:#fcf5ed" d="M 303.103 313.633 C 304.229 313.669 304.614 314.162 304.264 315.108 C 303.981 315.811 303.453 316.51 302.682 317.214 C 302.051 317.773 301.475 318.072 300.946 318.107 C 300.355 318.107 300.073 317.717 300.108 316.946 C 300.175 316.14 300.596 315.369 301.367 314.635 C 302.035 313.967 302.615 313.633 303.103 313.633 Z">
      <title>Pupil</title>
    </path>
    <path id="path900" style="fill-rule: evenodd; fill: rgb(59, 59, 58);" d="M 305.733 324.001 C 307.069 323.79 308.277 323.071 309.366 321.843 C 309.89 321.247 310.296 320.651 310.573 320.055 L 310.363 320.897 C 310.223 321.597 309.802 322.367 309.104 323.209 C 308.153 324.335 307.048 324.91 305.79 324.945 C 304.557 325.017 303.509 324.786 302.631 324.262 L 301.634 323.471 L 302.42 323.893 C 303.226 324.176 304.331 324.211 305.733 324.001 Z">
      <title>Shine</title>
    </path>
  </g>
  <ellipse style="fill: rgb(96, 111, 48);" cx="7.533" cy="194.086" rx="1.197" ry="1.955" transform="matrix(0.694477, 0.719515, -0.719514, 0.694478, 139.903749, 54.52331)"/>
  <path style="fill: url(#gradient-5);" transform="matrix(2.219875, -2.28632, 2.880025, 1.170697, -3783.810547, 1867.837158)" d="M 1077.779 560.794 A 17.558 17.558 0 0 1 1077.779 591.206 A 23.374 23.374 0 0 0 1077.779 560.794 Z" bx:shape="crescent 1069 576 17.558 120 0.91 1@a860bf12">
    <title>Shine</title>
  </path>
  <path style="fill: url(#gradient-2);" transform="matrix(-2.787165, -1.375419, -3.934433, 4.014265, 5362.17041, -559.655212)" d="M 1075.435 559.664 A 17.558 17.558 0 0 1 1075.435 592.336 A 21.029 21.029 0 0 0 1075.435 559.664 Z" bx:shape="crescent 1069 576 17.558 137 0.905 1@4621c51a">
    <title>Shine</title>
  </path>
  <path style="fill: url(#gradient-6);" transform="matrix(-0.968819, -1.180556, -1.739467, 1.063912, 2125.244141, 797.093384)" d="M 1082.048 564.251 A 17.558 17.558 0 0 1 1082.048 587.749 A 27.612 27.612 0 0 0 1082.048 564.251 Z" bx:shape="crescent 1069 576 17.558 84 0.946 1@94eee138">
    <title>Shine</title>
  </path>
  <path style="fill: url(#gradient-8);" transform="matrix(-1.671501, -2.713153, -3.419488, 0.578488, 4162.992676, 2958.930908)" d="M 1083.022 565.433 A 17.558 17.558 0 0 1 1083.022 586.567 A 22.788 22.788 0 0 0 1083.022 565.433 Z" bx:shape="crescent 1069 576 17.558 74 0.973 1@b2d6cc8f">
    <title>Shine</title>
  </path>
</svg>