<?xml version="1.0" encoding="utf-8"?>
<svg viewBox="38.622 60.596 65.337 51.868" width="65.337" height="51.868" xmlns="http://www.w3.org/2000/svg" xmlns:bx="https://boxy-svg.com">
  <defs>
    <linearGradient gradientUnits="userSpaceOnUse" x1="73.898" y1="64.119" x2="73.898" y2="104.342" id="gradient-0" gradientTransform="matrix(0.621903, -0.720289, 0.537475, 0.479002, -31.768243, 88.445375)">
      <stop offset="0" style="stop-color: rgb(202, 202, 202);"/>
      <stop offset="1" style="stop-color: rgb(90, 90, 90);"/>
    </linearGradient>
    <linearGradient gradientUnits="userSpaceOnUse" x1="77.9" y1="70.344" x2="77.9" y2="110.567" id="gradient-1" gradientTransform="matrix(0.759746, -0.629046, 1.015807, 1.236589, -86.01084, 14.771419)">
      <stop offset="0" style="stop-color: rgb(175, 175, 175);"/>
      <stop offset="1" style="stop-color: rgb(64, 64, 64);"/>
    </linearGradient>
    <linearGradient gradientUnits="userSpaceOnUse" x1="76.766" y1="59.474" x2="76.766" y2="99.697" id="gradient-2" gradientTransform="matrix(0.531424, -0.720213, 1.637389, 1.186276, -110.135361, 34.059838)">
      <stop offset="0" style="stop-color: rgb(216, 216, 216);"/>
      <stop offset="1" style="stop-color: rgb(132, 132, 132);"/>
    </linearGradient>
    <linearGradient gradientUnits="userSpaceOnUse" x1="80.226" y1="77.691" x2="80.226" y2="117.914" id="gradient-3" gradientTransform="matrix(0.697155, -0.162094, 0.193726, 0.883932, -9.295394, 3.352523)">
      <stop offset="0" style="stop-color: rgb(231, 231, 231);"/>
      <stop offset="1" style="stop-color: rgb(167, 167, 167);"/>
    </linearGradient>
    <linearGradient gradientUnits="userSpaceOnUse" x1="50.787" y1="47.25" x2="50.787" y2="87.473" id="gradient-4" gradientTransform="matrix(0.478032, -0.400826, 0.606381, 0.517818, 0.503094, 80.890794)">
      <stop offset="0" style="stop-color: rgb(216, 216, 216);"/>
      <stop offset="1" style="stop-color: rgb(162, 162, 162);"/>
    </linearGradient>
    <linearGradient gradientUnits="userSpaceOnUse" x1="76.766" y1="59.474" x2="76.766" y2="99.697" id="gradient-5" gradientTransform="matrix(0.727287, -0.521701, 0.70496, 0.96489, -50.067943, 43.762847)">
      <stop offset="0" style="stop-color: rgb(211, 211, 211);"/>
      <stop offset="1" style="stop-color: rgb(163, 163, 163);"/>
    </linearGradient>
    <linearGradient gradientUnits="userSpaceOnUse" x1="82.978" y1="74.704" x2="82.978" y2="114.927" id="gradient-6" gradientTransform="matrix(0.331585, -0.453906, 0.170012, 0.127536, 22.940726, 109.355978)">
      <stop offset="0" style="stop-color: rgb(215, 215, 215);"/>
      <stop offset="1" style="stop-color: rgb(188, 188, 188);"/>
    </linearGradient>
    <linearGradient gradientUnits="userSpaceOnUse" x1="67.645" y1="48.282" x2="67.645" y2="88.505" id="gradient-7" gradientTransform="matrix(0.247195, -0.353994, 0.586062, 0.273756, 18.325213, 94.516474)">
      <stop offset="0" style="stop-color: rgb(241, 241, 241);"/>
      <stop offset="1" style="stop-color: rgb(183, 183, 183);"/>
    </linearGradient>
    <radialGradient gradientUnits="userSpaceOnUse" cx="-65.226" cy="78.855" r="24.847" id="gradient-9" gradientTransform="matrix(-0.592641, 0.872038, -1.868441, -1.269796, 176.645419, 246.734077)">
      <stop offset="0" style=""/>
      <stop offset="1" style="stop-color: rgba(23, 23, 23, 0.07);"/>
    </radialGradient>
    <linearGradient gradientUnits="userSpaceOnUse" x1="64.899" y1="94.26" x2="64.899" y2="100.688" id="gradient-8" gradientTransform="matrix(0.868951, -0.494899, 0.262756, 0.461351, -16.009074, 83.904911)">
      <stop offset="0" style="stop-color: rgba(255, 255, 255, 0.21);"/>
      <stop offset="1" style="stop-color: rgba(255, 255, 255, 0.36);"/>
    </linearGradient>
  </defs>
  <path id="path-8" style="fill-rule: evenodd; fill: url(#gradient-9);" d="M 57.783 75.741 C 59.573 75.841 68.412 71.04 70.55 69.722 C 72.373 69.656 82.788 74.331 82.335 74.847 C 83.99 76.626 95.13 92.484 94.251 94.155 C 94.348 96.001 91.431 104.487 90.093 105.717 C 88.319 108.043 79.341 109.621 79.341 109.621 C 79.341 109.621 56.529 112.262 52.677 108.521 C 47.421 103.416 49.079 105.581 44.461 100.609 C 38.317 93.944 52.939 81.407 55.09 83.827 C 55.09 83.827 56.847 76.825 57.783 75.741 Z">
    <title>Rock Shadow</title>
  </path>
  <path id="path50" style="fill-rule: evenodd; fill: url(#gradient-1);" d="M 60.563 71.464 C 62.353 71.564 71.192 66.763 73.33 65.445 C 75.153 65.379 85.568 70.054 85.115 70.57 C 86.77 72.349 97.91 88.207 97.031 89.878 C 97.128 91.724 93.481 99.48 92.143 100.71 C 90.369 103.036 84.893 105.198 84.893 105.198 L 65.561 104.99 C 65.561 104.99 57.185 102.179 55.895 101.471 C 55.309 101.471 47.387 86.994 47.387 86.994 C 47.39 85.948 57.578 76.048 57.578 76.048 C 57.578 76.048 59.627 72.548 60.563 71.464 Z">
    <title>Rock Shade 3</title>
  </path>
  <path id="path-1" style="fill-rule: evenodd; fill: url(#gradient-0);" d="M 60.928 71.475 C 62.64 71.572 71.096 66.922 73.141 65.645 C 74.885 65.581 84.848 70.109 84.414 70.61 C 85.997 72.332 96.654 87.692 95.813 89.309 C 95.906 91.098 92.418 98.611 91.137 99.801 C 89.44 102.054 84.202 104.148 84.202 104.148 L 65.709 103.947 C 65.709 103.947 57.697 101.224 56.463 100.539 C 55.902 100.539 48.324 86.516 48.324 86.516 C 48.327 85.504 58.072 75.914 58.072 75.914 C 58.072 75.914 60.032 72.525 60.928 71.475 Z">
    <title>Rock Shade 2</title>
  </path>
  <path id="path-2" style="fill-rule: evenodd; fill: url(#gradient-2);" d="M 61.281 71.316 C 62.917 71.406 71 67.073 72.956 65.884 C 74.622 65.824 84.143 70.044 83.729 70.51 C 85.242 72.114 95.428 86.429 94.624 87.937 C 94.714 89.604 91.379 96.605 90.156 97.712 C 88.533 99.812 83.527 101.764 83.527 101.764 L 65.85 101.577 C 65.85 101.577 58.192 99.038 57.014 98.401 C 56.477 98.401 49.234 85.332 49.234 85.332 C 49.237 84.389 58.551 75.453 58.551 75.453 C 58.551 75.453 60.424 72.295 61.281 71.316 Z">
    <title>Rock Shade 1</title>
  </path>
  <path id="path-5" style="fill-rule: evenodd; fill: url(#gradient-5);" d="M 59.327 94.654 L 69.284 93.13 C 69.274 93.12 74.219 91.918 74.431 92.13 C 75.228 92.13 75.734 96.899 75.638 96.899 C 75.832 96.899 77.317 100.424 76.795 100.424 C 77.26 101.121 67.358 100.965 67.354 100.96 L 59.521 98.429 C 59.191 98.759 56.752 95.298 55.607 94.628 C 55.07 94.628 51.567 87.853 51.72 87.853 C 51.509 86.803 52.427 83.62 53.065 83.929 C 54.618 84.24 59.327 94.654 59.327 94.654 Z">
    <title>Highlight 3</title>
  </path>
  <path id="path-4" style="fill-rule: evenodd; fill: url(#gradient-4);" d="M 77.292 82.76 C 78.157 81.179 82.042 75.934 83.544 75.159 C 84.823 75.12 92.759 86.229 92.441 86.533 C 93.603 87.578 92.204 92.218 91.586 93.2 C 91.656 94.287 90.658 96.27 89.719 96.992 C 88.473 98.36 85.566 99.788 85.566 99.788 L 81.759 100.916 C 81.759 100.916 79.551 100.669 78.647 100.254 C 78.228 100.26 76.105 95.244 76.798 94.551 C 77.175 93.281 79.046 91.551 79.046 91.551 C 79.046 91.551 77.415 84.57 77.292 82.76 Z">
    <title>Highlight 2a</title>
  </path>
  <path id="path-7" style="fill-rule: evenodd; fill: url(#gradient-7);" d="M 80.539 85.888 C 81.142 84.796 83.896 85.3 84.944 84.765 C 85.835 84.738 90.521 87.413 90.299 87.623 C 91.11 88.345 90.134 91.55 89.703 92.228 C 89.752 92.979 85.506 96.779 85.506 96.779 C 85.506 96.779 81.313 97.388 80.683 97.101 C 80.39 97.105 79.503 94.403 79.987 93.925 C 80.249 93.047 80.707 91.174 80.707 91.174 C 80.509 90.777 80.62 87.129 80.539 85.888 Z">
    <title>Highlight 2b</title>
  </path>
  <path id="path-3" style="fill-rule: evenodd; fill: url(#gradient-3);" d="M 63.264 71.413 C 64.554 71.485 70.927 67.992 72.47 67.034 C 73.783 66.985 81.29 70.387 80.964 70.763 C 82.157 72.056 81.828 72.971 81.195 74.187 C 81.266 75.531 77.698 81.175 76.734 82.067 C 75.532 83.776 79.792 90.682 76.273 90.725 L 67.18 92.293 C 67.18 92.293 60.828 93.762 59.9 93.249 C 59.476 93.249 53.765 82.713 53.765 82.713 C 53.767 81.952 61.111 74.748 61.111 74.748 C 61.111 74.748 62.588 72.202 63.264 71.413 Z">
    <title>Highlight 1a</title>
  </path>
  <path id="path-6" style="fill-rule: evenodd; fill: url(#gradient-6);" d="M 64.342 73.926 C 65.354 73.982 69.99 70.573 71.202 69.822 C 72.233 69.783 78.129 72.455 77.873 72.75 C 78.81 73.765 78.551 74.484 78.055 75.439 C 78.11 76.495 75.308 80.927 74.551 81.627 C 73.607 82.969 76.954 88.189 74.189 88.427 C 74.189 88.427 60.618 91.219 61.331 90.41 C 60.248 86.575 56.531 83.638 56.513 82.135 C 56.514 81.538 61.289 79.291 62.799 77.062 C 63.544 75.965 63.811 74.545 64.342 73.926 Z" transform="matrix(0.990526, 0.137327, -0.137327, 0.990526, 11.651737, -8.510851)">
    <title>Highlight 1b</title>
  </path>
  <path id="path-9" style="fill-rule: evenodd; fill: rgba(255, 255, 255, 0.41);" d="M 57.658 80.706 C 58.092 80.277 60.078 80.475 60.833 80.265 C 61.475 80.254 59.85 81.472 60.062 82.546 C 60.647 82.83 61.238 84.987 61.238 84.987 C 61.191 85.081 57.017 82.592 57.658 80.706 Z">
    <title>Highlight 2b</title>
  </path>
  <path id="path-10" style="fill-rule: evenodd; fill: rgba(255, 255, 255, 0.46);" d="M 75.024 73.509 C 75.458 73.08 77.444 73.278 78.199 73.068 C 78.841 73.057 77.216 74.275 77.428 75.349 C 78.013 75.633 78.604 77.79 78.604 77.79 C 78.557 77.884 74.383 75.395 75.024 73.509 Z" transform="matrix(-0.847296, 0.531121, -0.531121, -0.847296, 181.274072, 97.83479)" bx:origin="0.443 0.404">
    <title>Highlight 2b</title>
  </path>
  <path id="path-11" style="fill-rule: evenodd; fill: rgba(255, 255, 255, 0.32);" d="M 87.509 92.3 C 87.8 92.76 89.133 92.548 89.639 92.773 C 90.071 92.785 88.98 91.48 89.122 90.329 C 89.515 90.024 89.911 87.714 89.911 87.714 C 89.88 87.613 87.078 90.28 87.509 92.3 Z" transform="matrix(-0.937729, 0.347367, -0.347367, -0.937729, 203.199455, 144.057755)">
    <title>Highlight 2b</title>
  </path>
  <path id="path-12" style="fill-rule: evenodd; fill: rgba(255, 255, 255, 0.33);" d="M 53.265 86.616 C 53.49 85.938 54.523 86.25 54.915 85.918 C 55.249 85.9 54.405 87.827 54.515 89.525 C 54.818 89.974 55.125 93.385 55.125 93.385 C 55.101 93.533 52.932 89.597 53.265 86.616 Z" transform="matrix(0.966073, -0.25827, 0.25827, 0.966073, -21.3167, 17.034143)">
    <title>Highlight 2b</title>
  </path>
  <path id="path-13" style="fill-rule: evenodd; fill: url(#gradient-8);" d="M 59.876 100.526 C 60.816 101.239 67.886 99.349 69.521 99.698 C 70.913 99.716 70.938 97.48 68.206 95.839 C 69.523 95.34 63.362 93.663 61.889 94.481 C 60.995 94.325 58.196 97.395 59.876 100.526 Z" transform="matrix(-1, 0, 0, -1, 133.605984, 194.104836)">
    <title>Highlight 2b</title>
  </path>
</svg>